<?xml version="1.0" encoding="UTF-8"?>
<svg xmlns="http://www.w3.org/2000/svg" xmlns:xlink="http://www.w3.org/1999/xlink" xmlns:svgjs="http://svgjs.com/svgjs" version="1.1" width="512" height="512" x="0" y="0" viewBox="0 0 512 512" style="enable-background:new 0 0 512 512" xml:space="preserve" class="">
  <g>
    <g xmlns="http://www.w3.org/2000/svg">
      <path d="m497 241h-106v-40h56c8.28 0 15-6.72 15-15s-6.72-15-15-15h-56v-32.81c0-8.28-6.72-15-15-15h-28.96v-63.19h52.96c6.19 17.46 22.86 30 42.42 30 24.81 0 45-20.19 45-45s-20.19-45-45-45c-19.56 0-36.23 12.54-42.42 30h-67.96c-8.28 0-15 6.72-15 15v78.19h-46.04v-108.19c0-8.28-6.72-15-15-15s-15 6.72-15 15v108.19h-46.04v-78.19c0-8.28-6.72-15-15-15h-67.96c-6.19-17.46-22.86-30-42.42-30-24.81 0-45 20.19-45 45s20.19 45 45 45c19.56 0 36.23-12.54 42.42-30h52.96v63.19h-28.96c-8.28 0-15 6.72-15 15v32.81h-56c-8.28 0-15 6.72-15 15s6.72 15 15 15h56v40h-106c-8.28 0-15 6.72-15 15s6.72 15 15 15h106v40h-56c-8.28 0-15 6.72-15 15s6.72 15 15 15h56v32.81c0 8.28 6.72 15 15 15h28.96v63.19h-52.96c-6.19-17.46-22.86-30-42.42-30-24.81 0-45 20.19-45 45s20.19 45 45 45c19.56 0 36.23-12.54 42.42-30h67.96c8.28 0 15-6.72 15-15v-78.19h46.04v108.19c0 8.28 6.72 15 15 15s15-6.72 15-15v-108.19h46.04v78.19c0 8.28 6.72 15 15 15h67.96c6.19 17.46 22.86 30 42.42 30 24.81 0 45-20.19 45-45s-20.19-45-45-45c-19.56 0-36.23 12.54-42.42 30h-52.96v-63.19h28.96c8.28 0 15-6.72 15-15v-32.81h56c8.28 0 15-6.72 15-15s-6.72-15-15-15h-56v-40h106c8.28 0 15-6.72 15-15s-6.72-15-15-15zm-286 38.19v29.62c0 8.28-6.72 15-15 15s-15-6.72-15-15v-75.62c0-24.81 20.19-45 45-45s45 20.19 45 45v75.62c0 8.28-6.72 15-15 15s-15-6.72-15-15v-29.62zm120 29.62c0 8.28-6.72 15-15 15s-15-6.72-15-15v-105.62c0-8.28 6.72-15 15-15s15 6.72 15 15z" fill="#007bff" data-original="#000000" style="" class=""/>
      <path d="m241 233.19v16h-30v-16c0-8.27 6.73-15 15-15s15 6.73 15 15z" fill="#007bff" data-original="#000000" style="" class=""/>
    </g>
  </g>
</svg>
