<?xml version="1.0" encoding="UTF-8"?>
<svg xmlns="http://www.w3.org/2000/svg" xmlns:xlink="http://www.w3.org/1999/xlink" xmlns:svgjs="http://svgjs.com/svgjs" version="1.1" width="512" height="512" x="0" y="0" viewBox="0 0 512 512" style="enable-background:new 0 0 512 512" xml:space="preserve" class="">
  <g>
    <g xmlns="http://www.w3.org/2000/svg">
      <g>
        <path d="m335.895 82.74c-1.22-.07-2.45-.1-3.68-.1h-192.14c-1.23 0-2.46.03-3.68.1l19.87-71.74c1.8-6.5 7.71-11 14.46-11h130.84c6.75 0 12.66 4.5 14.46 11z" fill="#007bff" data-original="#000000" style="" class=""/>
      </g>
      <g>
        <path d="m335.895 429.26-19.87 71.74c-1.8 6.5-7.71 11-14.46 11h-130.84c-6.75 0-12.66-4.5-14.46-11l-19.87-71.74c1.22.07 2.45.1 3.68.1h192.14c1.23 0 2.46-.03 3.68-.1z" fill="#007bff" data-original="#000000" style="" class=""/>
      </g>
      <path d="m395.435 216h-24.71v-30h9.705c8.284 0 15-6.716 15-15s-6.716-15-15-15h-9.705v-4.85c0-21.24-17.27-38.51-38.51-38.51h-192.14c-21.24 0-38.51 17.27-38.51 38.51v209.7c0 21.24 17.27 38.51 38.51 38.51h192.14c21.24 0 38.51-17.27 38.51-38.51v-4.85h9.705c8.284 0 15-6.716 15-15s-6.716-15-15-15h-9.705v-30h24.71c8.28 0 15-6.72 15-15v-50c0-8.28-6.72-15-15-15zm-206.48 54.23c5.86 5.86 5.86 15.35 0 21.21-2.93 2.93-6.77 4.4-10.61 4.4s-7.67-1.47-10.6-4.4l-24.84-24.83c-2.81-2.82-4.39-6.63-4.39-10.61s1.58-7.79 4.39-10.61l24.84-24.83c5.85-5.86 15.35-5.86 21.21 0s5.86 15.35 0 21.21l-14.23 14.23zm79.78-55.27-37.33 93.24c-2.35 5.86-7.98 9.42-13.93 9.42-1.86 0-3.75-.34-5.57-1.08-7.69-3.08-11.43-11.81-8.35-19.5l37.33-93.24c3.08-7.69 11.81-11.42 19.5-8.34s11.43 11.81 8.35 19.5zm60.65 51.65-24.84 24.83c-2.93 2.93-6.77 4.4-10.6 4.4-3.84 0-7.68-1.47-10.61-4.4-5.86-5.86-5.86-15.35 0-21.21l14.23-14.23-14.23-14.23c-5.86-5.86-5.86-15.35 0-21.21s15.36-5.86 21.21 0l24.84 24.83c2.059 2.066 3.45 4.667 4.05 7.474v6.272c-.6 2.807-1.991 5.408-4.05 7.474z" fill="#007bff" data-original="#000000" style="" class=""/>
    </g>
  </g>
</svg>
